<svg width="25" height="25" viewBox="0 0 25 25" fill="none" xmlns="http://www.w3.org/2000/svg">
<rect width="25" height="25" rx="5" fill="#111111"/>
<path d="M12.236 9.08C13.476 9.08 14.424 9.424 15.08 10.112C15.744 10.8 16.076 11.776 16.076 13.04C16.076 14.304 15.744 15.28 15.08 15.968C14.424 16.656 13.476 17 12.236 17H8.876V9.08H12.236ZM12.032 15.44C12.704 15.44 13.192 15.24 13.496 14.84C13.808 14.432 13.964 13.832 13.964 13.04C13.964 12.248 13.808 11.652 13.496 11.252C13.192 10.844 12.704 10.64 12.032 10.64H10.94V15.44H12.032Z" fill="white"/>
</svg>
